<?xml version="1.0" standalone="no"?>
<!DOCTYPE svg PUBLIC "-//W3C//DTD SVG 20010904//EN"
 "http://www.w3.org/TR/2001/REC-SVG-20010904/DTD/svg10.dtd">
<svg version="1.0" xmlns="http://www.w3.org/2000/svg"
 width="1800.000000pt" height="1800.000000pt" viewBox="0 0 1800.000000 1800.000000"
 preserveAspectRatio="xMidYMid meet">
<metadata>
Created by potrace 1.14, written by Peter Selinger 2001-2017
</metadata>
<g transform="translate(0.000000,1800.000000) scale(0.100000,-0.100000)"
fill="#000000" stroke="none">
<path d="M6345 16758 c3 -13 14 -51 25 -83 23 -67 22 -63 39 -125 21 -76 22
-80 30 -80 5 0 -2 29 -14 65 -13 36 -21 65 -19 65 3 0 -2 14 -11 30 -9 17 -13
30 -11 30 3 0 -2 16 -10 35 -8 19 -11 35 -8 35 4 0 0 7 -7 17 -8 9 -12 18 -11
20 2 3 1 7 -2 10 -3 3 -3 -5 -1 -19z"/>
<path d="M6440 16453 c0 -5 9 -36 21 -69 11 -32 22 -69 25 -80 2 -12 11 -37
19 -56 8 -20 12 -38 9 -41 -3 -3 -1 -8 5 -12 15 -9 14 9 -3 50 -8 19 -12 35
-9 35 3 0 0 7 -7 15 -7 8 -10 15 -7 15 4 0 -4 28 -17 63 -13 34 -24 66 -24 70
0 13 -12 22 -12 10z"/>
<path d="M6534 16159 c2 -15 19 -73 37 -130 18 -57 34 -107 35 -111 1 -5 3
-10 4 -13 1 -3 4 -9 5 -15 1 -5 4 -12 5 -15 1 -3 3 -8 4 -12 7 -37 31 -110 39
-120 5 -7 7 -13 3 -13 -3 0 3 -22 14 -50 11 -27 17 -50 14 -50 -4 0 -1 -7 6
-15 7 -8 9 -15 5 -15 -4 0 -1 -7 6 -17 8 -9 13 -19 12 -22 -2 -6 23 -104 34
-131 4 -8 7 -18 7 -22 1 -3 4 -10 8 -14 9 -9 4 18 -17 86 -23 75 -24 79 -26
88 0 4 -5 13 -11 20 -6 6 -8 12 -5 12 4 0 -1 19 -9 43 -9 23 -17 47 -18 52 -1
6 -5 16 -9 23 -5 6 -6 12 -3 12 3 0 -3 23 -14 50 -11 28 -17 50 -14 50 4 0 1
7 -6 15 -7 8 -9 15 -5 15 4 0 2 7 -5 15 -7 8 -10 15 -7 15 3 0 -3 26 -14 58
-11 31 -22 64 -24 72 -2 8 -11 37 -20 64 -9 26 -18 57 -20 69 -3 11 -7 22 -10
26 -4 3 -4 -6 -1 -20z"/>
<path d="M6790 15330 c10 -27 17 -50 15 -50 -2 0 3 -19 11 -42 9 -24 17 -50
19 -58 2 -8 4 -16 5 -17 2 -2 4 -7 5 -13 1 -5 4 -12 5 -15 1 -3 3 -8 4 -12 2
-8 40 -133 98 -318 18 -55 33 -103 34 -107 1 -5 2 -9 4 -10 1 -2 3 -10 5 -18
1 -8 17 -59 34 -113 17 -53 31 -101 31 -106 0 -6 5 -22 12 -38 6 -15 12 -30
12 -33 2 -8 28 -93 34 -110 3 -8 6 -18 7 -22 2 -5 3 -9 5 -10 1 -2 3 -10 5
-18 2 -8 6 -23 10 -32 7 -17 -4 -27 -37 -32 -7 -1 -19 -5 -25 -9 -7 -5 -13 -6
-13 -2 0 3 -17 -2 -37 -11 -21 -8 -45 -17 -53 -19 -8 -2 -53 -18 -100 -36 -47
-17 -112 -42 -146 -54 -33 -13 -69 -27 -80 -33 -30 -16 -93 -43 -99 -42 -3 1
-22 -8 -43 -18 -20 -11 -120 -61 -222 -111 -227 -113 -284 -143 -288 -153 -2
-4 -7 -8 -12 -8 -12 0 -154 -83 -158 -92 -2 -4 -8 -8 -13 -8 -8 0 -116 -67
-129 -80 -3 -3 -17 -11 -32 -19 -16 -8 -28 -18 -28 -23 0 -4 -7 -8 -15 -8 -8
0 -15 -4 -15 -10 0 -5 -6 -10 -13 -10 -7 0 -23 -10 -37 -23 -14 -12 -41 -34
-60 -47 -19 -13 -39 -28 -45 -32 -5 -5 -58 -44 -117 -88 -59 -43 -115 -87
-126 -97 -10 -10 -34 -30 -53 -45 -147 -114 -532 -492 -664 -652 -42 -50 -61
-74 -98 -116 -12 -14 -68 -86 -124 -160 -57 -74 -107 -140 -113 -146 -19 -24
-138 -206 -232 -354 -111 -176 -313 -569 -390 -760 -16 -41 -36 -89 -44 -107
-61 -136 -159 -436 -224 -683 -92 -352 -159 -744 -175 -1030 -3 -58 -8 -125
-11 -150 -6 -52 -6 -564 0 -630 3 -25 7 -83 11 -130 3 -47 8 -98 10 -115 2
-16 6 -59 10 -95 3 -36 8 -76 10 -90 3 -14 7 -42 10 -62 8 -61 14 -102 19
-124 2 -12 7 -37 10 -55 3 -19 8 -45 11 -59 3 -14 8 -38 10 -55 3 -16 8 -37
10 -45 2 -8 7 -28 10 -45 2 -16 7 -41 10 -55 3 -14 8 -38 11 -54 2 -16 7 -32
9 -36 2 -4 7 -20 10 -36 3 -16 12 -54 20 -84 9 -30 18 -66 21 -80 2 -14 9 -36
14 -50 5 -14 18 -59 30 -100 12 -41 24 -82 27 -90 4 -8 7 -18 8 -22 2 -5 4
-10 5 -13 1 -3 4 -9 5 -15 1 -5 4 -12 5 -15 1 -3 4 -9 5 -15 1 -5 4 -12 5 -15
1 -3 4 -9 5 -15 1 -5 4 -12 5 -15 1 -3 3 -8 5 -12 1 -5 5 -16 8 -25 16 -42 20
-54 22 -63 2 -6 13 -35 25 -65 40 -99 42 -105 38 -105 -1 -1 5 -13 15 -28 9
-15 15 -27 11 -27 -3 0 1 -11 10 -25 9 -14 14 -25 11 -25 -3 0 8 -24 24 -54
17 -29 27 -56 24 -60 -4 -3 0 -6 7 -6 7 0 11 -3 8 -6 -3 -3 14 -43 38 -90 23
-46 40 -84 37 -84 -3 0 1 -8 9 -17 8 -10 18 -30 22 -45 3 -16 11 -28 17 -28 6
0 8 -4 4 -9 -3 -5 -1 -12 5 -16 5 -3 19 -26 30 -50 11 -24 25 -47 30 -50 6 -4
8 -11 5 -16 -4 -5 -2 -9 3 -9 5 0 12 -8 15 -17 4 -10 18 -38 33 -63 15 -25 35
-58 44 -75 40 -70 86 -140 93 -143 4 -2 7 -8 7 -12 0 -8 64 -106 88 -135 4 -5
17 -25 27 -42 11 -18 23 -33 27 -33 4 0 8 -5 8 -11 0 -9 44 -75 60 -89 3 -3
17 -21 30 -40 25 -36 29 -41 58 -76 9 -12 28 -36 42 -54 14 -18 36 -45 50 -61
14 -15 39 -44 55 -65 17 -20 41 -49 55 -64 14 -15 41 -46 60 -70 35 -44 355
-367 426 -430 56 -50 114 -100 162 -138 22 -19 50 -41 60 -50 11 -10 34 -28
52 -42 18 -14 42 -34 54 -44 77 -69 394 -285 616 -422 52 -32 208 -115 345
-184 551 -278 1159 -474 1730 -555 22 -4 47 -8 55 -10 8 -2 44 -7 80 -10 36
-3 76 -8 90 -10 38 -7 223 -24 330 -31 123 -7 567 -8 645 -1 33 4 98 9 145 12
47 3 101 8 120 10 19 2 60 7 90 10 30 3 66 8 80 10 14 2 45 7 70 10 25 4 57 8
71 10 14 3 41 7 60 9 19 3 45 8 59 10 13 3 42 8 64 12 22 3 43 7 46 9 3 2 21
6 40 9 81 13 181 36 295 66 72 19 80 21 104 26 13 3 32 9 43 15 10 5 18 7 18
3 0 -3 7 -1 15 6 8 7 15 10 15 7 0 -3 33 5 73 19 39 14 83 28 96 30 14 3 29 8
35 12 6 3 16 7 21 8 19 4 205 73 225 84 11 6 20 8 20 4 0 -3 11 1 25 10 14 9
25 14 25 10 0 -3 11 1 25 10 13 9 29 16 34 16 20 0 590 275 601 290 3 4 20 13
38 21 17 8 32 17 32 21 0 5 5 8 12 8 11 0 159 88 168 101 3 3 15 9 28 13 12 4
22 12 22 17 0 5 7 9 15 9 8 0 15 5 15 10 0 6 7 10 15 10 8 0 15 5 15 10 0 6 6
10 13 10 7 0 23 9 35 20 12 11 25 20 30 20 5 0 17 9 27 20 10 11 23 20 30 20
7 0 20 9 30 20 10 11 24 20 32 20 7 0 13 3 13 8 0 4 32 29 70 57 39 27 70 53
70 57 0 4 6 8 14 8 8 0 16 3 18 8 2 6 78 70 123 105 146 112 473 424 621 592
103 118 147 169 184 215 19 24 40 48 45 54 6 6 24 29 40 51 17 22 32 42 35 45
3 3 17 21 30 40 13 19 30 42 37 50 14 15 99 139 183 265 44 66 191 310 221
366 312 582 503 1116 623 1744 32 164 47 258 50 315 2 25 6 61 9 80 8 47 17
130 23 216 2 39 7 98 9 130 6 69 6 560 1 619 -2 22 -7 85 -10 140 -4 55 -9
118 -11 140 -8 78 -17 160 -21 179 -2 10 -6 44 -10 75 -3 31 -8 58 -9 61 -2 3
-6 28 -9 55 -4 28 -13 78 -20 113 -7 34 -12 76 -12 92 1 17 -2 30 -5 30 -4 0
-10 19 -14 43 -9 48 -9 47 -25 107 -7 25 -14 52 -15 60 -2 8 -11 42 -20 75 -9
33 -18 67 -20 75 -2 8 -15 56 -29 105 -15 50 -29 97 -31 105 -2 8 -4 15 -5 15
-1 0 -3 7 -5 15 -2 8 -17 53 -35 100 -17 47 -33 92 -35 101 -2 8 -11 33 -20
55 -9 21 -18 44 -19 49 -3 11 -13 38 -25 70 -5 11 -9 25 -11 30 -1 6 -7 19
-13 30 -6 11 -12 22 -12 25 -1 3 -9 23 -19 45 -34 77 -39 90 -38 98 1 4 -3 7
-9 7 -5 0 -7 5 -4 10 3 6 1 10 -6 10 -7 0 -10 3 -7 6 7 6 -176 371 -230 462
-18 29 -32 57 -32 62 0 6 -4 10 -10 10 -5 0 -10 6 -10 14 0 8 -6 21 -12 28
-19 20 -38 50 -44 71 -4 9 -10 17 -15 17 -5 0 -9 5 -9 11 0 12 -91 152 -102
157 -5 2 -8 10 -8 18 0 8 -4 14 -8 14 -5 0 -14 10 -19 23 -9 17 -101 146 -146
202 -4 6 -24 32 -45 60 -20 27 -41 55 -47 61 -5 6 -23 28 -40 48 -16 21 -38
48 -48 60 -10 11 -37 43 -60 71 -138 163 -476 498 -636 628 -42 34 -85 70 -96
80 -50 47 -415 311 -535 387 -144 91 -152 95 -280 167 -256 143 -594 298 -870
398 -270 98 -623 196 -845 235 -33 6 -91 17 -130 25 -38 8 -142 23 -230 35
-171 22 -202 25 -335 35 -47 4 -110 8 -140 11 -128 10 -615 3 -735 -10 -27 -3
-85 -8 -127 -11 -42 -3 -86 -8 -97 -10 -11 -2 -44 -6 -73 -9 -29 -4 -62 -8
-73 -10 -11 -2 -42 -7 -70 -10 -89 -12 -120 -18 -210 -36 -85 -17 -99 -20
-134 -26 -35 -6 -56 -10 -91 -19 -11 -3 -29 -7 -40 -10 -11 -3 -29 -7 -40 -10
-11 -3 -29 -7 -40 -10 -11 -3 -29 -7 -40 -10 -11 -3 -28 -7 -39 -9 -10 -2 -51
-14 -92 -26 -41 -12 -82 -24 -91 -26 -10 -3 -18 -14 -18 -25 0 -38 -15 -18
-16 21 -1 22 -7 47 -14 55 -7 8 -10 15 -7 15 4 0 -1 19 -9 43 -9 23 -17 49
-19 57 -2 8 -4 16 -5 18 -2 1 -4 7 -5 12 -1 6 -4 12 -5 15 -1 3 -3 8 -4 13 -7
27 -60 194 -71 225 -8 20 -12 37 -9 37 4 0 1 7 -6 15 -7 8 -10 15 -6 15 3 0
-3 23 -14 50 -11 28 -17 50 -15 50 3 0 1 9 -5 21 -6 11 -13 28 -15 37 -2 9
-20 69 -40 132 -20 63 -37 120 -38 125 -1 6 -6 16 -10 23 -5 6 -6 12 -3 12 3
0 -6 30 -20 68 -14 37 -25 68 -25 70 4 9 -23 92 -29 92 -5 0 0 -22 10 -50z
m390 -1210 c0 -5 -4 -10 -10 -10 -5 0 -10 5 -10 10 0 6 5 10 10 10 6 0 10 -4
10 -10z m10 -24 c0 -3 -4 -8 -10 -11 -5 -3 -10 -1 -10 4 0 6 5 11 10 11 6 0
10 -2 10 -4z"/>
<path d="M16259 10146 c-2 -2 -20 -7 -39 -10 -19 -3 -46 -8 -60 -11 -14 -3
-38 -8 -55 -11 -16 -3 -34 -7 -40 -9 -5 -1 -29 -6 -52 -10 -24 -4 -43 -11 -43
-15 0 -4 26 -1 58 6 31 8 68 16 82 19 14 3 36 7 50 10 14 3 43 8 65 11 42 6
52 11 43 19 -2 3 -7 3 -9 1z"/>
<path d="M15852 10063 c-40 -9 -71 -18 -68 -20 5 -5 167 25 174 32 8 8 -28 4
-106 -12z"/>
<path d="M15710 10034 c-52 -13 -68 -16 -130 -29 -63 -12 -73 -14 -88 -19 -9
-3 -35 -7 -56 -11 -22 -3 -42 -8 -45 -11 -6 -6 71 3 101 12 16 5 36 9 88 19
14 3 36 7 50 10 14 3 51 11 83 17 31 6 57 15 57 20 0 4 -1 8 -2 7 -2 -1 -28
-7 -58 -15z"/>
<path d="M15369 9965 c-5 -4 -104 -26 -176 -40 -38 -7 -162 -32 -193 -39 -14
-4 -36 -8 -50 -11 -14 -3 -36 -7 -50 -10 -14 -3 -41 -8 -60 -11 -19 -3 -43 -7
-52 -10 -10 -3 -28 -7 -40 -10 -13 -2 -34 -6 -48 -9 -14 -3 -40 -8 -58 -11
-18 -3 -34 -9 -37 -13 -2 -4 24 -1 58 6 34 7 78 16 97 19 19 3 43 7 52 10 10
3 30 7 45 10 16 2 39 7 53 10 14 3 36 8 50 10 20 4 60 12 90 19 18 4 119 26
135 29 141 27 195 40 195 47 0 10 -4 11 -11 4z"/>
</g>
</svg>
